<svg xmlns="http://www.w3.org/2000/svg" class="thumb" viewBox="0 0 699 222" width="699" height="222" xmlns:inkscape="http://www.inkscape.org/namespaces/inkscape" xmlns:sodipodi="http://sodipodi.sourceforge.net/DTD/sodipodi-0.dtd" xmlns:xlink="http://www.w3.org/1999/xlink"><defs /><g transform="matrix(0.8934 0 0 0.8934 0.3139 0.0001)"><svg style="overflow: visible;" width="237" height="130"><defs><linearGradient id="Sje6f6s45w0" gradientUnits="userSpaceOnUse" x1="0" y1="65" x2="237" y2="65"><stop stop-color="rgb(126, 126, 126)" offset="0%" /><stop stop-color="rgb(126, 126, 126)" offset="100%" /></linearGradient></defs><path fill="none" d="M -50 105 C 178.711 104 218.711 104 447.422 105" /><text style="font-family: Warnes; font-size: 100px; text-anchor: middle;" fill="url(#Sje6f6s45w0)" x="276.5" y="0" dy="84.5">TTP</text></svg></g><g transform="matrix(0.9185 0 0 0.9185 106.943 103.368)"><svg style="overflow: visible;" width="334" height="130"><defs><linearGradient id="Sje6f6s45w7" gradientUnits="userSpaceOnUse" x1="0" y1="65" x2="334" y2="65"><stop stop-color="rgb(126, 126, 126)" offset="0%" /><stop stop-color="rgb(126, 126, 126)" offset="100%" /></linearGradient></defs><path fill="none" d="M -50 105 C 178.711 104 218.711 104 447.422 105" /><text style="font-family: Warnes; font-size: 100px; text-anchor: middle;" fill="url(#Sje6f6s45w7)" x="167" y="0" dy="84.5">Rant</text></svg></g><g transform="matrix(2.7273 0 0 2.7273 427.795 106.522)"><svg viewBox="-8.88178e-016 46.25 38.61 39.499" width="38.61" height="39.499"><defs><linearGradient id="Sje6f6s45wc" x1="0" y1="0.5" x2="1" y2="0.5"><stop stop-color="rgb(23, 97, 160)" offset="0%" /><stop stop-color="rgb(23, 97, 160)" offset="100%" /></linearGradient></defs><path fill="url(#Sje6f6s45wc)" d="M 29.416 51.25 H 9.194 C 6.882 51.25 5 53.131 5 55.443 v 21.113 c 0 2.313 1.882 4.193 4.194 4.193 h 20.222 c 2.313 0 4.194 -1.881 4.194 -4.193 V 55.443 C 33.61 53.131 31.729 51.25 29.416 51.25 Z M 25.253 53.096 c 1.623 0 2.944 1.32 2.944 2.941 v 15.762 c 0 1.623 -1.321 2.943 -2.944 2.943 H 13.06 c -1.622 0 -2.942 -1.32 -2.942 -2.943 V 56.037 c 0 -1.621 1.32 -2.941 2.942 -2.941 H 25.253 Z M 5.655 55.443 c 0 -1.951 1.588 -3.537 3.539 -3.537 h 17.883 l -1.87 0.533 H 13.06 c -1.983 0 -3.598 1.613 -3.598 3.598 V 71.67 l -3.807 4.059 V 55.443 Z" /></svg></g><g transform="matrix(2.7273 0 0 2.7273 511.508 106.522)"><svg viewBox="30.696 46.25 38.608 39.499" width="38.608" height="39.499"><defs><linearGradient id="Sje6f6s45wi" x1="0" y1="0.5" x2="1" y2="0.5"><stop stop-color="rgb(116, 209, 76)" offset="0%" /><stop stop-color="rgb(116, 209, 76)" offset="100%" /></linearGradient></defs><path fill="url(#Sje6f6s45wi)" d="M 60.11 51.25 H 39.89 c -2.313 0 -4.194 1.881 -4.194 4.193 v 21.113 c 0 2.313 1.881 4.193 4.194 4.193 H 60.11 c 2.313 0 4.194 -1.881 4.194 -4.193 V 55.443 C 64.305 53.131 62.424 51.25 60.11 51.25 Z M 55.948 53.096 c 1.623 0 2.943 1.32 2.943 2.941 v 15.762 c 0 1.623 -1.32 2.943 -2.943 2.943 H 43.755 c -1.623 0 -2.942 -1.32 -2.942 -2.943 V 56.037 c 0 -1.621 1.319 -2.941 2.942 -2.941 H 55.948 Z M 36.351 55.443 c 0 -1.951 1.588 -3.537 3.539 -3.537 h 17.882 l -1.869 0.533 H 43.755 c -1.984 0 -3.599 1.613 -3.599 3.598 V 71.67 l -3.806 4.059 V 55.443 Z" /></svg></g><g transform="matrix(2.7273 0 0 2.7273 511.508 19.2539)"><svg viewBox="30.696 14.25 38.608 39.502" width="38.608" height="39.502"><defs><linearGradient id="Sje6f6s45wo" x1="0" y1="0.5" x2="1" y2="0.5"><stop stop-color="rgb(231, 130, 0)" offset="0%" /><stop stop-color="rgb(231, 130, 0)" offset="100%" /></linearGradient></defs><path fill="url(#Sje6f6s45wo)" d="M 60.11 19.25 H 39.89 c -2.313 0 -4.194 1.881 -4.194 4.194 v 21.113 c 0 2.312 1.881 4.195 4.194 4.195 H 60.11 c 2.313 0 4.194 -1.883 4.194 -4.195 V 23.444 C 64.305 21.131 62.424 19.25 60.11 19.25 Z M 55.948 21.096 c 1.623 0 2.943 1.32 2.943 2.942 v 15.761 c 0 1.623 -1.32 2.943 -2.943 2.943 H 43.755 c -1.623 0 -2.942 -1.32 -2.942 -2.943 V 24.038 c 0 -1.623 1.319 -2.942 2.942 -2.942 H 55.948 Z M 36.351 23.444 c 0 -1.951 1.588 -3.539 3.539 -3.539 h 17.882 l -1.869 0.535 H 43.755 c -1.984 0 -3.599 1.614 -3.599 3.598 v 15.631 l -3.806 4.059 V 23.444 Z" /></svg></g><g transform="matrix(2.7273 0 0 2.7273 595.222 106.522)"><svg viewBox="61.39 46.25 38.61 39.499" width="38.61" height="39.499"><defs><linearGradient id="Sje6f6s45wu" x1="0" y1="0.5" x2="1" y2="0.5"><stop stop-color="rgb(101, 13, 136)" offset="0%" /><stop stop-color="rgb(101, 13, 136)" offset="100%" /></linearGradient></defs><path fill="url(#Sje6f6s45wu)" d="M 90.806 51.25 H 70.584 c -2.313 0 -4.194 1.881 -4.194 4.193 v 21.113 c 0 2.313 1.882 4.193 4.194 4.193 h 20.222 c 2.313 0 4.194 -1.881 4.194 -4.193 V 55.443 C 95 53.131 93.118 51.25 90.806 51.25 Z M 86.643 53.096 c 1.624 0 2.944 1.32 2.944 2.941 v 15.762 c 0 1.623 -1.32 2.943 -2.944 2.943 H 74.449 c -1.622 0 -2.942 -1.32 -2.942 -2.943 V 56.037 c 0 -1.621 1.32 -2.941 2.942 -2.941 H 86.643 Z M 67.045 55.443 c 0 -1.951 1.588 -3.537 3.539 -3.537 h 17.883 l -1.87 0.533 H 74.449 c -1.983 0 -3.598 1.613 -3.598 3.598 V 71.67 l -3.807 4.059 V 55.443 Z" /></svg></g><g transform="matrix(2.7273 0 0 2.7273 535.466 42.5693)"><svg viewBox="39.602 22.686 14.365 19.728" width="14.365" height="19.728"><defs /><polygon fill="none" points="44.602,31.465 46.418,31.465 46.418,37.414 47.15,37.414 47.15,31.465 48.967,31.465 46.784,27.686" /></svg></g><g transform="matrix(2.7273 0 0 2.7273 449.04 136.873)"><svg viewBox="7.73 57.445 19.73 14.366" width="19.73" height="14.366"><defs /><polygon fill="none" points="16.511,62.445 12.73,64.629 16.511,66.811 16.511,64.992 22.46,64.992 22.46,64.262 16.511,64.262" /></svg></g><g transform="matrix(2.7273 0 0 2.7273 535.466 130.066)"><svg viewBox="39.602 54.768 14.365 19.728" width="14.365" height="19.728"><defs /><polygon fill="none" points="47.15,59.768 46.418,59.768 46.418,65.717 44.602,65.717 46.784,69.496 48.967,65.717 47.15,65.717" /></svg></g><g transform="matrix(2.7273 0 0 2.7273 614.887 136.873)"><svg viewBox="68.541 57.445 19.729 14.366" width="19.729" height="14.366"><defs /><polygon fill="none" points="79.489,64.262 73.541,64.262 73.541,64.992 79.489,64.992 79.489,66.811 83.27,64.629 79.489,62.445" /></svg></g><g transform="matrix(2.7273 0 0 2.7273 614.885 136.876)"><svg viewBox="68.541 57.447 19.728 14.364" width="19.728" height="14.364"><defs><linearGradient id="Sje6f6s45xc" x1="0" y1="0.5" x2="1" y2="0.5"><stop stop-color="rgb(0, 0, 0)" offset="0%" /><stop stop-color="rgb(0, 0, 0)" offset="100%" /></linearGradient></defs><path fill="url(#Sje6f6s45xc)" d="M 79.489 66.811 v -1.816 h -5.948 v -0.73 h 5.948 v -1.818 l 3.78 2.186 L 79.489 66.811 Z" /></svg></g><g transform="matrix(2.7273 0 0 2.7273 535.462 130.066)"><svg viewBox="39.601 54.768 14.364 19.728" width="14.364" height="19.728"><defs><linearGradient id="Sje6f6s45xi" x1="0" y1="0.5" x2="1" y2="0.5"><stop stop-color="rgb(0, 0, 0)" offset="0%" /><stop stop-color="rgb(0, 0, 0)" offset="100%" /></linearGradient></defs><path fill="url(#Sje6f6s45xi)" d="M 46.784 69.496 l -2.183 -3.779 h 1.816 v -5.949 h 0.731 v 5.949 h 1.817 L 46.784 69.496 Z" /></svg></g><g transform="matrix(2.7273 0 0 2.7273 449.04 136.867)"><svg viewBox="7.73 57.442 19.73 14.368" width="19.73" height="14.368"><defs><linearGradient id="Sje6f6s45xo" x1="0" y1="0.5" x2="1" y2="0.5"><stop stop-color="rgb(0, 0, 0)" offset="0%" /><stop stop-color="rgb(0, 0, 0)" offset="100%" /></linearGradient></defs><path fill="url(#Sje6f6s45xo)" d="M 22.46 64.992 h -5.949 v 1.818 l -3.781 -2.184 l 3.781 -2.184 v 1.816 h 5.949 V 64.992 Z" /></svg></g><g transform="matrix(2.7273 0 0 2.7273 535.47 42.5693)"><svg viewBox="39.602 22.686 14.368 19.728" width="14.368" height="19.728"><defs><linearGradient id="Sje6f6s45xu" x1="0" y1="0.5" x2="1" y2="0.5"><stop stop-color="rgb(0, 0, 0)" offset="0%" /><stop stop-color="rgb(0, 0, 0)" offset="100%" /></linearGradient></defs><path fill="url(#Sje6f6s45xu)" d="M 47.15 31.465 v 5.949 h -0.73 v -5.949 h -1.818 l 2.184 -3.779 l 2.184 3.779 H 47.15 Z" /></svg></g></svg>